<svg width="184" height="182" viewBox="0 0 184 182" fill="none" xmlns="http://www.w3.org/2000/svg">
<g clip-path="url(#clip0_1075_140)">
<path d="M69.0764 105.007C66.6851 105.378 64.3803 105.367 62.1372 104.605C57.2839 102.956 55.3241 98.9772 56.5655 93.9755C57.6272 89.6975 60.5968 87.1009 64.5168 85.4468C67.0411 84.3816 69.7029 83.9333 72.4171 83.6766C75.1927 83.4142 74.8776 84.0115 75.564 81.2473C76.8834 75.9342 78.1051 70.5893 79.1299 65.2124C80.6094 57.4502 81.7844 49.6299 83.2707 41.8692C84.1618 37.2163 85.6505 32.7186 88.5027 28.832C92.6681 23.1561 98.0021 19.204 105.089 17.9983C108.456 17.4256 111.767 17.6594 114.802 19.3594C118.812 21.6049 120.924 25.1332 121.219 29.6829C121.816 38.8611 114.141 46.3609 106.188 47.3294C104.863 47.4909 103.491 47.2853 102.142 47.2188C101.887 47.2063 101.639 47.0497 101.388 46.9595C101.379 46.8842 101.37 46.8089 101.362 46.7335C101.608 46.6149 101.846 46.4196 102.103 46.3893C106.222 45.903 109.193 43.6475 111.449 40.3173C114.031 36.5086 115.365 32.3189 115.093 27.6899C114.965 25.5119 114.457 23.4251 112.947 21.7466C111.385 20.0108 109.321 19.7551 107.278 20.8908C104.548 22.4072 102.772 24.7889 101.281 27.4203C98.2156 32.8309 96.6223 38.7443 95.618 44.8155C94.2871 52.8608 93.258 60.9584 91.8051 68.9803C90.9216 73.8585 89.5265 78.6475 88.2768 83.4546C87.6565 85.8408 87.5636 85.8355 89.8764 86.7602C95.855 89.1506 101.822 91.5711 107.831 93.8827C110.363 94.8566 112.994 95.4366 115.763 95.4489C121.618 95.4748 125.343 91.676 126.468 86.6673C126.61 86.0346 126.668 85.3826 126.823 84.7535C126.887 84.4918 127.101 84.2667 127.247 84.0249C127.463 84.2445 127.791 84.4273 127.878 84.6896C128.481 86.5235 128.459 88.4289 128.306 90.3146C127.998 94.1034 126.534 97.4231 123.914 100.183C121.182 103.06 117.718 104.432 113.838 104.885C108.405 105.519 103.337 104.033 98.432 102.007C93.8149 100.099 89.3163 97.9036 84.7755 95.8133C83.2288 95.1013 83.0249 95.1309 82.0646 96.5069C78.89 101.056 74.5475 103.83 69.0764 105.007ZM58.5894 96.313C57.857 98.5065 58.9678 100.51 61.0938 100.583C62.1615 100.62 63.2992 100.432 64.306 100.07C66.6877 99.2134 68.4361 97.4565 69.9897 95.536C70.6355 94.7376 71.1055 93.7873 71.59 92.8714C71.8867 92.3106 71.6371 91.8852 71.0243 91.7152C70.7266 91.6327 70.4199 91.5554 70.1134 91.5357C67.9293 91.3956 65.7676 91.5244 63.6808 92.2393C61.5488 92.9697 59.6494 94.0203 58.5894 96.313Z" fill="url(#paint0_linear_1075_140)"/>
<path d="M86.153 10.3014C86.2989 8.99262 86.4408 7.71936 86.5827 6.44609C86.6064 6.44526 86.6301 6.44443 86.6538 6.4436C86.7109 7.00384 86.7708 7.56356 86.8245 8.12442C87.0335 10.3076 87.2915 12.4782 87.9115 14.5244C88.1242 15.2262 88.397 15.8998 88.6847 16.5508C89.3133 17.9736 90.3305 18.6887 91.4101 19.2527C93.0061 20.0863 94.677 20.4782 96.3606 20.7843C96.6769 20.8418 96.9916 20.9159 97.3071 20.9824C97.3083 21.0178 97.3094 21.0532 97.3106 21.0886C96.8003 21.1885 96.2894 21.2828 95.7799 21.3892C94.039 21.7528 92.328 22.2479 90.7156 23.2883C89.4885 24.0801 88.6591 25.3509 88.1069 27.0184C87.4372 29.0408 87.1262 31.1926 86.8884 33.3713C86.8237 33.9632 86.7703 34.5574 86.7086 35.1499C86.6964 35.2666 86.67 35.3806 86.6501 35.4959C86.623 35.496 86.5958 35.4962 86.5687 35.4963C86.5134 34.9557 86.4566 34.4154 86.4029 33.8744C86.2072 31.9013 85.9016 29.969 85.4521 28.0682C84.7687 25.1789 83.3225 23.4773 81.2714 22.589C79.6938 21.9058 78.0767 21.5121 76.4455 21.197C76.2769 21.1644 76.1088 21.1258 75.9405 21.09C75.9377 21.0543 75.9349 21.0186 75.9321 20.9829C76.2867 20.9108 76.6408 20.8324 76.9961 20.7677C78.6502 20.4665 80.2779 20.03 81.8594 19.2583C83.7244 18.3482 84.8755 16.5453 85.4528 14.0055C85.7267 12.8007 85.9194 11.5609 86.153 10.3014Z" fill="#FECA24"/>
</g>
<path d="M56.6251 151.123C56.3173 151.123 56.1634 151.033 56.1634 150.853C56.1634 150.776 56.2147 150.712 56.3173 150.661C56.5482 150.558 56.8431 150.405 57.2022 150.199C57.5869 150.02 57.7921 149.558 57.8177 148.814V148.661C57.8177 147.788 57.4715 147.186 56.779 146.852C56.0865 146.519 55.1888 146.352 54.086 146.352C52.9318 146.352 51.6495 146.48 50.2388 146.737C48.8282 146.993 47.4304 147.288 46.0455 147.622C44.6861 147.955 43.4551 148.25 42.3522 148.507C41.275 148.763 40.4799 148.891 39.967 148.891C39.9157 148.891 39.8644 148.879 39.8131 148.853C39.7618 148.853 39.7105 148.853 39.6592 148.853C39.4797 148.802 39.3514 148.686 39.2745 148.507C39.1976 148.353 39.1334 148.186 39.0821 148.006C39.0565 147.904 39.0437 147.737 39.0437 147.506C39.0437 147.25 39.0693 146.993 39.1206 146.737C39.1976 146.506 39.3001 146.365 39.4284 146.314C39.8387 146.16 40.3389 146.006 40.9288 145.852C41.5443 145.673 42.2111 145.519 42.9293 145.39C43.2114 144.954 43.4294 144.493 43.5833 144.005C43.7628 143.493 43.9039 142.954 44.0065 142.39C44.0834 141.902 44.1347 141.402 44.1604 140.889C44.186 140.376 44.1988 139.851 44.1988 139.312C44.1988 138.132 44.1604 136.901 44.0834 135.619C44.0065 134.311 43.968 133.003 43.968 131.695C43.968 129.797 44.1475 127.963 44.5066 126.193C44.8913 124.398 45.6992 122.808 46.9303 121.423C47.751 120.474 48.7256 119.73 49.8541 119.191C51.0083 118.653 52.3035 118.384 53.7397 118.384C55.1504 118.384 56.3045 118.781 57.2022 119.576C58.0998 120.371 58.7667 121.41 59.2027 122.692C59.6387 123.949 59.8567 125.308 59.8567 126.77C59.8567 128.053 59.69 129.335 59.3566 130.617C59.0231 131.9 58.523 133.067 57.8562 134.118C57.215 135.17 56.4199 136.016 55.471 136.657C54.522 137.299 53.432 137.619 52.2009 137.619C51.175 137.619 50.2645 137.26 49.4694 136.542C48.6743 135.824 48.1742 134.683 47.969 133.118C47.9434 132.99 47.9306 132.862 47.9306 132.733C47.9306 132.605 47.9306 132.477 47.9306 132.349C47.9306 131.836 47.969 131.31 48.046 130.771C48.1486 130.233 48.2768 129.835 48.4307 129.579C48.5846 129.322 48.7769 129.194 49.0078 129.194C49.1616 129.194 49.2386 129.297 49.2386 129.502C49.2386 129.656 49.2001 129.848 49.1232 130.079C48.918 130.746 48.8154 131.464 48.8154 132.233C48.8154 132.951 48.918 133.657 49.1232 134.349C49.3284 135.042 49.6489 135.619 50.085 136.08C50.521 136.516 51.0852 136.734 51.7777 136.734C52.701 136.734 53.6243 136.337 54.5476 135.542C55.4966 134.747 56.2789 133.567 56.8944 132.002C57.5099 130.438 57.8177 128.527 57.8177 126.27C57.8177 125.013 57.6638 123.859 57.3561 122.808C57.0739 121.731 56.6379 120.858 56.048 120.192C55.4581 119.525 54.7144 119.191 53.8167 119.191C52.7138 119.191 51.7521 119.512 50.9313 120.153C50.1106 120.769 49.4181 121.602 48.8539 122.654C48.3666 123.603 47.9819 124.718 47.6997 126.001C47.4433 127.258 47.2509 128.63 47.1227 130.117C46.9944 131.579 46.879 133.067 46.7764 134.58C46.6738 136.093 46.5328 137.568 46.3532 139.004C46.1737 140.415 45.9044 141.71 45.5453 142.89C45.4171 143.3 45.276 143.685 45.1221 144.044C44.9939 144.403 44.8272 144.736 44.622 145.044C45.6223 144.89 46.661 144.762 47.7382 144.659C48.841 144.557 49.9182 144.506 50.9698 144.506C52.4061 144.506 53.7269 144.634 54.9324 144.89C56.1378 145.121 57.0996 145.531 57.8177 146.121C58.5615 146.686 58.9334 147.468 58.9334 148.468C58.9334 149.289 58.7026 149.93 58.2409 150.392C57.7792 150.879 57.2535 151.123 56.6636 151.123H56.6251ZM68.7496 146.698C67.9545 146.698 67.3133 146.455 66.826 145.968C66.3387 145.455 65.954 144.813 65.6718 144.044C65.4154 143.249 65.2358 142.454 65.1332 141.659C65.0307 140.838 64.9794 140.12 64.9794 139.504C64.6716 140.658 64.2741 141.787 63.7867 142.89C63.3251 143.993 62.8121 144.903 62.2479 145.621C61.6836 146.314 61.0681 146.66 60.4013 146.66H60.3628C59.7472 146.66 59.2343 146.378 58.8239 145.814C58.4136 145.224 58.1058 144.454 57.9006 143.505C57.6954 142.556 57.5928 141.53 57.5928 140.428V140.043C57.5928 139.017 57.6826 137.889 57.8621 136.657C58.0417 135.401 58.3623 134.208 58.8239 133.08C59.2856 131.951 59.914 131.028 60.709 130.31C61.5298 129.566 62.5685 129.194 63.8252 129.194C64.3125 129.194 64.7485 129.309 65.1332 129.54C65.5436 129.745 65.8386 130.053 66.0181 130.464C66.1976 130.258 66.4413 130.092 66.749 129.963C67.0568 129.835 67.4287 129.771 67.8647 129.771C68.0186 129.771 68.1853 129.784 68.3648 129.81C68.57 129.835 68.7752 129.874 68.9804 129.925C68.8265 130.515 68.647 131.323 68.4418 132.349C68.2366 133.375 68.0571 134.503 67.9032 135.734C67.7749 136.94 67.7108 138.119 67.7108 139.273V139.427C67.7108 139.915 67.7365 140.492 67.7878 141.159C67.8391 141.825 67.9288 142.479 68.0571 143.121C68.1853 143.762 68.3648 144.3 68.5957 144.736C68.8265 145.172 69.1214 145.39 69.4805 145.39H69.519C69.7242 145.39 69.9422 145.288 70.173 145.083C70.4295 144.877 70.6988 144.493 70.9809 143.929C71.3656 143.185 71.7247 142.223 72.0581 141.043C72.1094 140.812 72.212 140.697 72.3659 140.697C72.4941 140.697 72.5582 140.851 72.5582 141.159V141.312C72.5069 141.979 72.3274 142.736 72.0196 143.582C71.7119 144.429 71.2758 145.16 70.7116 145.775C70.173 146.391 69.519 146.698 68.7496 146.698ZM61.7093 143.505C62.1197 143.505 62.4915 143.21 62.825 142.62C63.184 142.031 63.5046 141.312 63.7867 140.466C64.0689 139.62 64.3125 138.799 64.5177 138.004C64.8255 136.824 65.0307 135.632 65.1332 134.426C65.2358 133.195 65.4538 131.99 65.7873 130.81C65.4795 130.476 65.1332 130.31 64.7485 130.31C64.1843 130.31 63.6072 130.592 63.0173 131.156C62.4274 131.72 61.9658 132.361 61.6323 133.08C61.222 133.977 60.9142 135.029 60.709 136.234C60.5295 137.44 60.4397 138.594 60.4397 139.697C60.4397 139.979 60.4397 140.261 60.4397 140.543C60.4654 140.825 60.491 141.094 60.5167 141.351C60.568 142.12 60.709 142.672 60.9399 143.005C61.1963 143.339 61.4528 143.505 61.7093 143.505ZM72.1455 146.814C71.7865 146.814 71.4787 146.686 71.2222 146.429C70.9914 146.147 70.876 145.685 70.876 145.044C70.876 144.942 70.876 144.839 70.876 144.736C70.876 144.608 70.8888 144.48 70.9144 144.352C70.9657 143.89 71.017 143.249 71.0683 142.428C71.1453 141.607 71.1966 140.684 71.2222 139.658C71.2735 138.632 71.2991 137.606 71.2991 136.58C71.2991 135.503 71.2607 134.49 71.1837 133.541C71.1324 132.567 71.0298 131.797 70.876 131.233C71.0811 131.182 71.3504 131.041 71.6839 130.81C72.0173 130.579 72.3635 130.425 72.7226 130.348C72.7995 130.322 72.9021 130.31 73.0304 130.31C73.4664 130.31 73.7357 130.54 73.8383 131.002C73.9665 131.464 74.0306 132.028 74.0306 132.695C74.0306 133.157 74.0178 133.708 73.9921 134.349C73.9921 134.965 73.9665 135.503 73.9152 135.965C74.1973 135.144 74.5051 134.439 74.8385 133.849C75.1719 133.233 75.531 132.644 75.9157 132.079C76.3004 131.489 76.7108 130.912 77.1468 130.348C77.5828 129.758 78.1727 129.463 78.9165 129.463C79.6859 129.463 80.186 129.72 80.4169 130.233C80.6477 130.746 80.7631 131.31 80.7631 131.925C80.7631 132.259 80.7503 132.579 80.7246 132.887C80.699 133.169 80.6733 133.439 80.6477 133.695C80.6477 133.875 80.6092 134.349 80.5323 135.119C80.4553 135.862 80.3784 136.747 80.3015 137.773C80.2245 138.773 80.186 139.786 80.186 140.812C80.186 141.094 80.1989 141.492 80.2245 142.005C80.2502 142.492 80.3015 142.992 80.3784 143.505C80.4553 143.993 80.5836 144.416 80.7631 144.775C80.9683 145.108 81.2376 145.275 81.571 145.275C81.7762 145.275 82.007 145.198 82.2635 145.044C82.5456 144.839 82.7893 144.57 82.9945 144.236C83.2253 143.903 83.4048 143.569 83.5331 143.236C83.6356 143.005 83.7382 142.749 83.8408 142.467C83.9434 142.184 84.0332 141.89 84.1101 141.582C84.2127 141.274 84.3538 141.12 84.5333 141.12C84.6615 141.12 84.7257 141.248 84.7257 141.505V141.659C84.7257 141.838 84.6872 142.069 84.6103 142.351C84.559 142.633 84.482 142.915 84.3794 143.198C84.0717 144.147 83.61 144.98 82.9945 145.698C82.4046 146.391 81.571 146.737 80.4938 146.737C79.7757 146.737 79.2114 146.468 78.8011 145.929C78.4164 145.365 78.1342 144.647 77.9547 143.775C77.8521 143.287 77.7752 142.8 77.7239 142.313C77.6982 141.825 77.6854 141.338 77.6854 140.851C77.6854 139.645 77.7623 138.453 77.9162 137.273C78.0958 136.068 78.1855 134.913 78.1855 133.811C78.1855 133.451 78.1342 133.118 78.0316 132.81C77.9547 132.477 77.7623 132.31 77.4546 132.31C77.1468 132.31 76.7749 132.605 76.3389 133.195C75.9029 133.759 75.4541 134.593 74.9924 135.696C74.5307 136.773 74.146 138.004 73.8383 139.389C73.5305 140.748 73.3766 142.146 73.3766 143.582C73.3766 144.454 73.4535 145.339 73.6074 146.237C73.4279 146.365 73.1971 146.493 72.9149 146.622C72.6328 146.75 72.3763 146.814 72.1455 146.814ZM86.4908 160.664C85.0802 160.664 84.0671 160.305 83.4516 159.586C82.8617 158.894 82.5667 158.022 82.5667 156.97C82.5667 156.175 82.7078 155.329 82.9899 154.431C83.272 153.559 83.6311 152.687 84.0671 151.815C84.657 150.661 85.4392 149.597 86.4138 148.622C87.3885 147.647 88.3887 146.788 89.4146 146.044C90.4405 145.275 91.3254 144.659 92.0691 144.198V143.929C92.0691 143.467 92.0435 142.838 91.9922 142.043C91.9666 141.248 91.9281 140.415 91.8768 139.543C91.8255 138.671 91.7742 137.901 91.7229 137.234C91.6716 137.414 91.6203 137.594 91.569 137.773C91.5177 137.927 91.4664 138.081 91.4151 138.235C91.1843 139.107 90.915 140.043 90.6072 141.043C90.2995 142.043 89.9404 142.98 89.53 143.852C89.1197 144.698 88.6452 145.403 88.1066 145.968C87.5936 146.506 87.0166 146.775 86.3754 146.775C85.7085 146.775 85.1699 146.57 84.7596 146.16C84.3492 145.749 84.0414 145.237 83.8363 144.621C83.6311 143.98 83.49 143.326 83.4131 142.659C83.3361 141.992 83.2977 141.389 83.2977 140.851C83.2977 138.799 83.5285 136.85 83.9902 135.003C84.4775 133.157 85.311 131.682 86.4908 130.579C87.0037 130.092 87.5295 129.745 88.0681 129.54C88.6324 129.335 89.1581 129.232 89.6454 129.232C90.2353 129.232 90.7739 129.361 91.2612 129.617C91.7742 129.848 92.1846 130.156 92.4923 130.54C92.8001 130.181 93.1463 129.963 93.5311 129.886C93.9158 129.784 94.262 129.733 94.5698 129.733H95.0314C95.4162 129.733 95.6085 129.81 95.6085 129.963C95.6085 130.015 95.5572 130.092 95.4546 130.194C95.1982 130.425 94.993 130.874 94.8391 131.541C94.7108 132.208 94.6211 133.003 94.5698 133.926C94.5185 134.824 94.4928 135.76 94.4928 136.734C94.4928 137.837 94.5057 138.902 94.5313 139.927C94.557 140.928 94.5698 141.71 94.5698 142.274V142.697C95.2879 142.261 95.9291 141.915 96.4934 141.659C97.0576 141.377 97.4808 141.236 97.7629 141.236C97.8142 141.236 97.8527 141.248 97.8783 141.274C97.904 141.274 97.9296 141.274 97.9553 141.274C98.0835 141.3 98.1476 141.389 98.1476 141.543C98.1476 141.646 98.122 141.748 98.0707 141.851C98.0194 141.928 97.9424 141.966 97.8399 141.966C97.5321 141.992 97.1089 142.159 96.5703 142.467C96.0573 142.749 95.5829 143.082 95.1469 143.467C94.7108 143.826 94.4928 144.147 94.4928 144.429V145.044C94.4928 148.584 94.121 151.507 93.3772 153.816C92.659 156.124 91.6844 157.842 90.4533 158.971C89.2479 160.099 87.9271 160.664 86.4908 160.664ZM87.3756 143.659H87.491C87.9784 143.659 88.4144 143.339 88.7991 142.697C89.2094 142.056 89.5685 141.248 89.8763 140.274C90.2097 139.273 90.4918 138.248 90.7226 137.196C90.9791 136.119 91.1843 135.157 91.3382 134.311C91.4921 133.439 91.6075 132.81 91.6844 132.426C91.787 131.81 91.9666 131.297 92.223 130.887C91.9409 130.528 91.5434 130.348 91.0304 130.348C90.261 130.348 89.5942 130.592 89.0299 131.079C88.4913 131.566 88.0296 132.208 87.6449 133.003C87.2859 133.798 86.9909 134.644 86.7601 135.542C86.5549 136.414 86.401 137.26 86.2984 138.081C86.1958 138.876 86.1445 139.543 86.1445 140.081C86.1445 140.261 86.1445 140.543 86.1445 140.928C86.1702 141.312 86.2215 141.723 86.2984 142.159C86.3754 142.569 86.4908 142.928 86.6447 143.236C86.8242 143.518 87.0679 143.659 87.3756 143.659ZM86.0676 159.856C87.3243 159.856 88.3759 159.253 89.2223 158.048C90.0686 156.842 90.7226 155.137 91.1843 152.931C91.6716 150.751 91.9794 148.16 92.1076 145.16C91.6973 145.39 91.0689 145.865 90.2225 146.583C89.3761 147.301 88.4913 148.186 87.568 149.238C86.6703 150.315 85.9137 151.533 85.2982 152.892C84.9648 153.636 84.7083 154.354 84.5288 155.047C84.3492 155.765 84.2595 156.419 84.2595 157.009C84.2595 157.855 84.4133 158.535 84.7211 159.048C85.0545 159.586 85.5034 159.856 86.0676 159.856ZM106.339 146.698C105.313 146.698 104.518 146.404 103.954 145.814C103.39 145.224 102.915 144.467 102.53 143.544C102.248 142.877 101.992 142.146 101.761 141.351C101.53 140.556 101.338 139.812 101.184 139.12C101.056 138.427 100.966 137.889 100.915 137.504C100.915 137.452 100.915 137.427 100.915 137.427C100.94 137.401 100.953 137.376 100.953 137.35H100.915C100.427 138.684 100.004 139.992 99.645 141.274C99.3115 142.531 99.0807 143.493 98.9525 144.159C98.9525 144.211 98.9268 144.262 98.8755 144.313C98.7986 144.954 98.6575 145.416 98.4524 145.698C98.0163 146.339 97.4649 146.66 96.7981 146.66C96.8494 146.455 96.8878 146.083 96.9135 145.544C96.9391 145.006 96.9648 144.365 96.9904 143.621C97.0161 143.108 97.0289 142.595 97.0289 142.082C97.0546 141.543 97.0674 141.005 97.0674 140.466V140.043C97.0674 138.53 97.0417 137.081 96.9904 135.696C96.9391 134.311 96.8622 132.977 96.7596 131.695C96.734 131.259 96.6955 130.669 96.6442 129.925C96.6185 129.155 96.6057 128.322 96.6057 127.424C96.6057 126.321 96.657 125.18 96.7596 124C96.8622 122.821 97.0546 121.718 97.3367 120.692C97.6188 119.666 98.0163 118.845 98.5293 118.23C99.0679 117.588 99.7604 117.268 100.607 117.268C101.581 117.268 102.248 117.653 102.607 118.422C102.966 119.166 103.146 120.076 103.146 121.153C103.146 122.256 103.018 123.423 102.761 124.654C102.53 125.885 102.261 127.014 101.953 128.04C101.671 129.04 101.453 129.758 101.299 130.194C100.966 131.143 100.581 132.105 100.145 133.08C99.7347 134.054 99.3115 134.965 98.8755 135.811C98.9268 136.504 98.9653 137.26 98.991 138.081C99.0166 138.876 99.0422 139.684 99.0679 140.505C99.35 139.35 99.6963 138.094 100.107 136.734C100.543 135.375 101.056 134.08 101.645 132.849C102.235 131.592 102.915 130.566 103.684 129.771C104.454 128.976 105.313 128.578 106.262 128.578C107.083 128.578 107.621 128.822 107.878 129.309C108.134 129.797 108.263 130.31 108.263 130.848C108.263 131.541 107.993 132.297 107.455 133.118C106.916 133.913 106.262 134.657 105.493 135.349C104.749 136.016 104.018 136.529 103.3 136.888C103.351 137.247 103.466 137.76 103.646 138.427C103.826 139.094 104.044 139.812 104.3 140.582C104.556 141.351 104.851 142.082 105.185 142.774C105.544 143.467 105.903 144.031 106.262 144.467C106.647 144.903 107.044 145.121 107.455 145.121C107.814 145.121 108.109 144.967 108.34 144.659C108.57 144.326 108.75 144.031 108.878 143.775C109.212 143.057 109.545 142.146 109.878 141.043C109.981 140.812 110.084 140.697 110.186 140.697C110.314 140.697 110.378 140.851 110.378 141.159V141.312C110.353 141.851 110.225 142.467 109.994 143.159C109.789 143.826 109.506 144.441 109.147 145.006C108.84 145.493 108.468 145.891 108.032 146.198C107.596 146.506 107.108 146.673 106.57 146.698H106.339ZM98.8371 134.388C99.4013 133.105 99.9143 131.759 100.376 130.348C100.838 128.937 101.209 127.54 101.492 126.155C101.774 124.77 101.915 123.487 101.915 122.308V121.884C101.889 121.141 101.799 120.525 101.645 120.038C101.517 119.55 101.299 119.307 100.991 119.307C100.684 119.307 100.402 119.615 100.145 120.23C99.9143 120.846 99.7091 121.692 99.5296 122.769C99.3757 123.718 99.2474 124.744 99.1448 125.847C99.0679 126.95 99.0038 128.027 98.9525 129.079C98.9012 130.13 98.8627 131.066 98.8371 131.887C98.8114 132.682 98.7986 133.246 98.7986 133.58C98.7986 133.682 98.7986 133.811 98.7986 133.964C98.7986 134.093 98.8114 134.234 98.8371 134.388ZM101.068 136.965C102.043 136.811 102.889 136.439 103.608 135.85C104.351 135.234 104.928 134.567 105.339 133.849C105.775 133.131 105.993 132.528 105.993 132.041C105.993 131.554 105.775 131.31 105.339 131.31C104.877 131.31 104.415 131.541 103.954 132.002C103.518 132.438 103.107 132.977 102.723 133.618C102.338 134.259 102.005 134.888 101.722 135.503C101.44 136.119 101.222 136.606 101.068 136.965ZM119.771 146.698C118.976 146.698 118.335 146.455 117.847 145.968C117.36 145.455 116.975 144.813 116.693 144.044C116.437 143.249 116.257 142.454 116.155 141.659C116.052 140.838 116.001 140.12 116.001 139.504C115.693 140.658 115.295 141.787 114.808 142.89C114.346 143.993 113.833 144.903 113.269 145.621C112.705 146.314 112.089 146.66 111.423 146.66H111.384C110.769 146.66 110.256 146.378 109.845 145.814C109.435 145.224 109.127 144.454 108.922 143.505C108.717 142.556 108.614 141.53 108.614 140.428V140.043C108.614 139.017 108.704 137.889 108.883 136.657C109.063 135.401 109.384 134.208 109.845 133.08C110.307 131.951 110.935 131.028 111.73 130.31C112.551 129.566 113.59 129.194 114.847 129.194C115.334 129.194 115.77 129.309 116.155 129.54C116.565 129.745 116.86 130.053 117.039 130.464C117.219 130.258 117.463 130.092 117.77 129.963C118.078 129.835 118.45 129.771 118.886 129.771C119.04 129.771 119.207 129.784 119.386 129.81C119.591 129.835 119.797 129.874 120.002 129.925C119.848 130.515 119.668 131.323 119.463 132.349C119.258 133.375 119.078 134.503 118.925 135.734C118.796 136.94 118.732 138.119 118.732 139.273V139.427C118.732 139.915 118.758 140.492 118.809 141.159C118.86 141.825 118.95 142.479 119.078 143.121C119.207 143.762 119.386 144.3 119.617 144.736C119.848 145.172 120.143 145.39 120.502 145.39H120.54C120.745 145.39 120.963 145.288 121.194 145.083C121.451 144.877 121.72 144.493 122.002 143.929C122.387 143.185 122.746 142.223 123.079 141.043C123.131 140.812 123.233 140.697 123.387 140.697C123.515 140.697 123.58 140.851 123.58 141.159V141.312C123.528 141.979 123.349 142.736 123.041 143.582C122.733 144.429 122.297 145.16 121.733 145.775C121.194 146.391 120.54 146.698 119.771 146.698ZM112.731 143.505C113.141 143.505 113.513 143.21 113.846 142.62C114.205 142.031 114.526 141.312 114.808 140.466C115.09 139.62 115.334 138.799 115.539 138.004C115.847 136.824 116.052 135.632 116.155 134.426C116.257 133.195 116.475 131.99 116.809 130.81C116.501 130.476 116.155 130.31 115.77 130.31C115.206 130.31 114.629 130.592 114.039 131.156C113.449 131.72 112.987 132.361 112.654 133.08C112.243 133.977 111.936 135.029 111.73 136.234C111.551 137.44 111.461 138.594 111.461 139.697C111.461 139.979 111.461 140.261 111.461 140.543C111.487 140.825 111.512 141.094 111.538 141.351C111.589 142.12 111.73 142.672 111.961 143.005C112.218 143.339 112.474 143.505 112.731 143.505ZM129.207 146.698C128.36 146.698 127.694 146.429 127.206 145.891C126.719 145.326 126.373 144.608 126.168 143.736C125.988 142.838 125.898 141.877 125.898 140.851C125.898 139.748 125.962 138.671 126.091 137.619C126.245 136.542 126.398 135.593 126.552 134.772C126.732 133.952 126.86 133.387 126.937 133.08C126.219 133.028 125.655 132.913 125.244 132.733C124.834 132.554 124.488 132.336 124.206 132.079C124.103 133.31 123.936 134.631 123.705 136.042C123.5 137.452 123.257 138.812 122.974 140.12C122.692 141.402 122.385 142.505 122.051 143.428C121.949 143.762 121.782 143.929 121.551 143.929C121.372 143.929 121.282 143.813 121.282 143.582C121.282 143.531 121.282 143.467 121.282 143.39C121.307 143.313 121.333 143.236 121.359 143.159C121.769 141.979 122.115 140.697 122.397 139.312C122.68 137.901 122.898 136.542 123.051 135.234C123.205 133.926 123.282 132.836 123.282 131.964V131.541C122.641 131.259 122.167 130.848 121.859 130.31C121.577 129.771 121.436 129.258 121.436 128.771C121.436 128.412 121.5 128.091 121.628 127.809C121.782 127.527 122 127.386 122.282 127.386H122.359C122.718 127.386 123.039 127.642 123.321 128.155C123.603 128.643 123.834 129.194 124.013 129.81C124.193 130.399 124.283 130.874 124.283 131.233C124.59 131.464 124.924 131.63 125.283 131.733C125.667 131.836 125.988 131.887 126.245 131.887C126.578 131.887 126.796 131.836 126.899 131.733C127.104 131.528 127.347 131.233 127.63 130.848C127.937 130.464 128.412 130.271 129.053 130.271C129.489 130.271 130.015 130.399 130.63 130.656C130.323 131.297 130.04 132.028 129.784 132.849C129.527 133.644 129.309 134.49 129.13 135.388C129.104 135.593 129.04 136.003 128.938 136.619C128.835 137.234 128.745 137.94 128.668 138.735C128.591 139.53 128.553 140.325 128.553 141.12C128.553 142.249 128.668 143.249 128.899 144.121C129.156 144.967 129.617 145.39 130.284 145.39C130.694 145.39 131.053 145.224 131.361 144.89C131.669 144.557 131.938 144.147 132.169 143.659C132.4 143.146 132.592 142.659 132.746 142.197C132.9 141.71 133.016 141.325 133.092 141.043C133.144 140.812 133.246 140.697 133.4 140.697C133.528 140.697 133.593 140.838 133.593 141.12V141.312C133.593 142.492 133.375 143.493 132.939 144.313C132.528 145.108 131.99 145.711 131.323 146.121C130.656 146.506 129.951 146.698 129.207 146.698ZM142.99 146.698C142.195 146.698 141.554 146.455 141.066 145.968C140.579 145.455 140.194 144.813 139.912 144.044C139.656 143.249 139.476 142.454 139.373 141.659C139.271 140.838 139.22 140.12 139.22 139.504C138.912 140.658 138.514 141.787 138.027 142.89C137.565 143.993 137.052 144.903 136.488 145.621C135.924 146.314 135.308 146.66 134.641 146.66H134.603C133.987 146.66 133.475 146.378 133.064 145.814C132.654 145.224 132.346 144.454 132.141 143.505C131.936 142.556 131.833 141.53 131.833 140.428V140.043C131.833 139.017 131.923 137.889 132.102 136.657C132.282 135.401 132.602 134.208 133.064 133.08C133.526 131.951 134.154 131.028 134.949 130.31C135.77 129.566 136.809 129.194 138.065 129.194C138.553 129.194 138.989 129.309 139.373 129.54C139.784 129.745 140.079 130.053 140.258 130.464C140.438 130.258 140.681 130.092 140.989 129.963C141.297 129.835 141.669 129.771 142.105 129.771C142.259 129.771 142.426 129.784 142.605 129.81C142.81 129.835 143.015 129.874 143.221 129.925C143.067 130.515 142.887 131.323 142.682 132.349C142.477 133.375 142.297 134.503 142.143 135.734C142.015 136.94 141.951 138.119 141.951 139.273V139.427C141.951 139.915 141.977 140.492 142.028 141.159C142.079 141.825 142.169 142.479 142.297 143.121C142.426 143.762 142.605 144.3 142.836 144.736C143.067 145.172 143.362 145.39 143.721 145.39H143.759C143.964 145.39 144.182 145.288 144.413 145.083C144.67 144.877 144.939 144.493 145.221 143.929C145.606 143.185 145.965 142.223 146.298 141.043C146.35 140.812 146.452 140.697 146.606 140.697C146.734 140.697 146.798 140.851 146.798 141.159V141.312C146.747 141.979 146.568 142.736 146.26 143.582C145.952 144.429 145.516 145.16 144.952 145.775C144.413 146.391 143.759 146.698 142.99 146.698ZM135.95 143.505C136.36 143.505 136.732 143.21 137.065 142.62C137.424 142.031 137.745 141.312 138.027 140.466C138.309 139.62 138.553 138.799 138.758 138.004C139.066 136.824 139.271 135.632 139.373 134.426C139.476 133.195 139.694 131.99 140.027 130.81C139.72 130.476 139.373 130.31 138.989 130.31C138.425 130.31 137.847 130.592 137.258 131.156C136.668 131.72 136.206 132.361 135.873 133.08C135.462 133.977 135.154 135.029 134.949 136.234C134.77 137.44 134.68 138.594 134.68 139.697C134.68 139.979 134.68 140.261 134.68 140.543C134.706 140.825 134.731 141.094 134.757 141.351C134.808 142.12 134.949 142.672 135.18 143.005C135.437 143.339 135.693 143.505 135.95 143.505Z" fill="#7A6074"/>
<defs>
<linearGradient id="paint0_linear_1075_140" x1="111.868" y1="77.945" x2="40.935" y2="156.16" gradientUnits="userSpaceOnUse">
<stop stop-color="#1A2A4F"/>
<stop offset="1" stop-color="#F7A5A5"/>
</linearGradient>
<clipPath id="clip0_1075_140">
<rect width="111.689" height="111.689" fill="white" transform="translate(36.1555)"/>
</clipPath>
</defs>
</svg>
