<svg width="26" height="26" viewBox="0 0 26 26" fill="none" xmlns="http://www.w3.org/2000/svg">
<path d="M5.41663 21.125V5.41667C5.41663 4.22005 6.38668 3.25 7.58329 3.25H19.9333C20.2923 3.25 20.5833 3.54101 20.5833 3.9V22.75" stroke="#1A2A4F" stroke-width="2.4375" stroke-linecap="round"/>
<path d="M9.75 7.5835L16.25 7.5835" stroke="#1A2A4F" stroke-width="2.4375" stroke-linecap="round"/>
<path d="M7.04163 16.25L20.5833 16.25" stroke="#1A2A4F" stroke-width="2.4375" stroke-linecap="round"/>
<path d="M7.04163 19.5L20.5833 19.5" stroke="#1A2A4F" stroke-width="2.4375" stroke-linecap="round"/>
<path d="M7.04163 22.75L20.5833 22.75" stroke="#1A2A4F" stroke-width="2.4375" stroke-linecap="round"/>
<path d="M7.04163 19.5C5.95829 19.5 5.41663 18.7725 5.41663 17.875C5.41663 16.9775 5.95829 16.25 7.04163 16.25" stroke="#1A2A4F" stroke-width="2.4375" stroke-linecap="round" stroke-linejoin="round"/>
<path d="M7.04163 22.75C5.95829 22.75 5.41663 22.0225 5.41663 21.125C5.41663 20.2275 5.95829 19.5 7.04163 19.5" stroke="#1A2A4F" stroke-width="2.4375" stroke-linecap="round" stroke-linejoin="round"/>
</svg>
