<svg width="25" height="25" viewBox="0 0 25 25" fill="none" xmlns="http://www.w3.org/2000/svg">
<path d="M7.22119 18.5693H10.8318H14.4425" stroke="#563A3A" stroke-width="1.54742" stroke-linecap="round" stroke-linejoin="round"/>
<path d="M7.22119 14.4424H7.737H8.25281" stroke="#563A3A" stroke-width="1.54742" stroke-linecap="round" stroke-linejoin="round"/>
<path d="M7.22119 10.3164H8.76862H10.316" stroke="#563A3A" stroke-width="1.54742" stroke-linecap="round" stroke-linejoin="round"/>
<path d="M7.22119 2.06348L17.0215 2.06348L21.6638 6.70575V19.601" stroke="#563A3A" stroke-width="1.54742" stroke-linecap="round" stroke-linejoin="round"/>
<path d="M3.09473 21.1483V6.70563C3.09473 5.85101 3.78753 5.1582 4.64215 5.1582H14.7019C14.8661 5.1582 15.0235 5.22342 15.1396 5.3395L18.3877 8.58757C18.5038 8.70365 18.569 8.86108 18.569 9.02525V21.1483C18.569 22.0029 17.8762 22.6957 17.0215 22.6957H4.64215C3.78753 22.6957 3.09473 22.0029 3.09473 21.1483Z" stroke="#563A3A" stroke-width="1.54742" stroke-linecap="round" stroke-linejoin="round"/>
<path d="M14.4424 5.1582V8.6657C14.4424 9.00755 14.7195 9.28467 15.0614 9.28467H18.5688" stroke="#563A3A" stroke-width="1.54742" stroke-linecap="round" stroke-linejoin="round"/>
</svg>
